<svg id="Capa_1" data-name="Capa 1" xmlns="http://www.w3.org/2000/svg" viewBox="0 0 100 100"><defs><style>.cls-1{fill:#8077b6;}</style></defs><title>Wave </title><g id="Capa_2" data-name="Capa 2"><path class="cls-1" d="M66,51.31a.92.92,0,0,1,0-.22,8,8,0,0,0-.06-1.19C64,46.77,61.64,45,58.8,44.53c-3.9-.53-8.54,1.54-12.47,5.67-2.5,2.63-6,3-7.74,1.74-.64-.48-1.9-1.88-.42-4.88-1.13.43-2.22.82-3.25,1.17v.06C35,59,29.18,67.48,22.26,71.46l-.5.28-4.19,1.95h-.63a40.33,40.33,0,0,0,66-.13l-4.52-2.1C71.8,67.67,66.89,60,66,51.31Z"/><path class="cls-1" d="M28.68,47.54c0,.17,0,.21.06.22s1.1.48,4.93-.72c.3-.09,3.89-1,5.08-1.49l.78.94c-1.24,2.11-.76,4.53.73,4.8,1.77.31,3.43-1.1,5.71-3.46,4-4.17,8.84-5.47,12.86-4.87,2.75.41,5.09,1.16,7,3.88C65,40.23,61.54,34.11,55.8,31c-3.91-2.1-8.25-1.76-12.89,1a1,1,0,0,1-1.32-.3c-.78-1.21-3.17-1.55-6.23-.91a1,1,0,0,1-1.16-1.14,2.21,2.21,0,0,0,.07-.51,1.1,1.1,0,0,0-.53-1c-1-.65-3.52-.66-6.87.75-4.79,2-8.12,5.63-8.11,7.6,0,.79.64,1.26,1.87,1.38a1,1,0,0,1,.69,1.56,6.23,6.23,0,0,0-1.45,3.48,1.84,1.84,0,0,0,.79,1.57c1.33,1,4.16,1,7.4,0a1,1,0,0,1,1.12,1.35A3.72,3.72,0,0,0,28.68,47.54Z"/><path class="cls-1" d="M49.9,9.83A40.49,40.49,0,0,0,15.77,72a1,1,0,0,1,.39-.18c8-1.58,16.29-10.23,16.82-22.16-2.76.76-4.4.78-5.38.07a2.13,2.13,0,0,1-.86-1.79,4.4,4.4,0,0,1,.08-.82c-3.13.67-5.73.42-7.31-.73a3.81,3.81,0,0,1-1.58-3.16,7.05,7.05,0,0,1,1-3.49,3.12,3.12,0,0,1-2.16-3c0-3.09,4.06-7.28,9.29-9.53,3.64-1.57,6.9-1.79,8.7-.61a3,3,0,0,1,1.39,2.2c2.87-.41,5.12,0,6.43,1.27,6.23-3.5,11.1-2.32,14.12-.67,7.08,3.88,11,13.75,11.17,21.56V51c1,10,8,18.77,16.3,20.65A40.49,40.49,0,0,0,49.9,9.83Z"/><path class="cls-1" d="M89.91,25.35A47.17,47.17,0,1,0,95.83,61,47.17,47.17,0,0,0,89.91,25.35Zm-40,67.57A42.61,42.61,0,1,1,92.42,50.21v.1A42.56,42.56,0,0,1,49.91,92.92h0Z"/></g></svg>