<svg id="Capa_1" data-name="Capa 1" xmlns="http://www.w3.org/2000/svg" viewBox="0 0 100 100"><defs><style>.cls-1{fill:#c61000;}.cls-2{fill:#fff;}</style></defs><title>Hybrid</title><g id="Capa_2" data-name="Capa 2"><path class="cls-1" d="M49.9,9.83A40.48,40.48,0,1,0,90.29,50.4v-.09A40.44,40.44,0,0,0,49.9,9.83Z"/><path class="cls-1" d="M89.91,25.35A47.17,47.17,0,1,0,95.83,61,47.17,47.17,0,0,0,89.91,25.35Zm-40,67.57A42.61,42.61,0,1,1,92.42,50.21v.1A42.56,42.56,0,0,1,49.91,92.92h0Z"/></g><path class="cls-2" d="M51.56,25.05a6.6,6.6,0,0,1-4.11-1.7,6.6,6.6,0,0,1-1.73-4.09,7.76,7.76,0,0,1-3,.7A6.52,6.52,0,0,1,37.54,17a6.48,6.48,0,0,1-5.1,3,7.78,7.78,0,0,1-3.07-.69,6.61,6.61,0,0,1-1.7,4.1,6.59,6.59,0,0,1-4.1,1.74c1.41,3.35.71,5.86-2.26,8.19,3,2.3,3.7,4.82,2.32,8.17a6.59,6.59,0,0,1,4.11,1.71,6.58,6.58,0,0,1,1.73,4.09,7.77,7.77,0,0,1,3-.7,6.54,6.54,0,0,1,5.16,2.95,6.48,6.48,0,0,1,5.1-3,7.76,7.76,0,0,1,3,.68,5.87,5.87,0,0,1,5.8-5.84c-1.41-3.35-.71-5.86,2.26-8.19C50.89,30.92,50.18,28.41,51.56,25.05Zm-14,20.65A12.42,12.42,0,1,1,50,33.27h0A12.42,12.42,0,0,1,37.59,45.7Z"/><circle class="cls-2" cx="37.57" cy="33.28" r="10.8"/><path class="cls-2" d="M59.37,43a12.57,12.57,0,0,0-3,1.57C51.8,47.61,41.75,57,41.75,57s12.48-5.78,17-8.85A12.57,12.57,0,0,0,61.38,46a3.22,3.22,0,0,1-2-3Z"/><path class="cls-2" d="M64.07,17.78S61,31.18,60.67,36.67a12.49,12.49,0,0,0,.17,3.43A3.24,3.24,0,0,1,64.52,40,13.3,13.3,0,0,0,65,36.95C65.38,31.47,64.07,17.78,64.07,17.78Z"/><path class="cls-2" d="M64.52,45.58a11.81,11.81,0,0,0,3.3,1.67c5.18,1.83,18.71,4.3,18.71,4.3S74.46,45,69.28,43.14a13.13,13.13,0,0,0-3.09-.74A3.23,3.23,0,0,1,64.52,45.58Z"/><circle class="cls-2" cx="62.6" cy="42.96" r="1.94" transform="translate(-13.32 42.3) rotate(-33.96)"/><path class="cls-2" d="M77.34,68c-2.16,4.87-7.05,8.51-8.74,9.66,0,0,5.89-7.59,5.46-17.17,0,9.71-7,16.6-7,16.6-1.5-1.74-4.25-5.61-3.19-9.72,1.44-5.56,7.44-5,10.18-14.06C74.1,53.33,80,62.09,77.34,68Z"/><path class="cls-2" d="M57.13,64.76c-3,0-4.4-1.67-5.51-3-1-1.16-1.56-1.81-2.73-1.81-1.63,0-2.24.81-3.08,1.94-1,1.29-2.17,2.89-5.11,2.89s-4.4-1.67-5.51-3c-1-1.16-1.56-1.81-2.73-1.81-1.63,0-2.24.81-3.08,1.94-1,1.29-2.17,2.89-5.11,2.89a1,1,0,0,1,0-1.93c2,0,2.67-.94,3.56-2.12s2-2.71,4.62-2.71c2.14,0,3.24,1.33,4.22,2.51s1.92,2.32,4,2.32,2.67-.94,3.56-2.12,2-2.71,4.62-2.71c2.14,0,3.24,1.33,4.22,2.51s1.92,2.32,4,2.32a1,1,0,0,1,0,1.93Z"/><path class="cls-2" d="M57.13,71.23c-3,0-4.4-1.67-5.51-3-1-1.16-1.56-1.81-2.73-1.81-1.63,0-2.24.81-3.08,1.94-1,1.29-2.17,2.89-5.11,2.89s-4.4-1.67-5.51-3c-1-1.16-1.56-1.81-2.73-1.81-1.63,0-2.24.81-3.08,1.94-1,1.29-2.17,2.89-5.11,2.89a1,1,0,0,1,0-1.93c2,0,2.67-.94,3.56-2.12s2-2.71,4.62-2.71c2.14,0,3.24,1.33,4.22,2.51s1.92,2.32,4,2.32,2.67-.94,3.56-2.12,2-2.71,4.62-2.71c2.14,0,3.24,1.33,4.22,2.51s1.92,2.32,4,2.32a1,1,0,1,1,0,1.93Z"/><path class="cls-2" d="M57.13,77.69c-3,0-4.4-1.67-5.51-3-1-1.16-1.56-1.81-2.73-1.81-1.63,0-2.24.81-3.08,1.94-1,1.29-2.17,2.89-5.11,2.89s-4.4-1.67-5.51-3c-1-1.16-1.56-1.81-2.73-1.81-1.63,0-2.24.81-3.08,1.94-1,1.29-2.17,2.89-5.11,2.89a1,1,0,0,1,0-1.93c2,0,2.67-.94,3.56-2.12s2-2.71,4.62-2.71c2.14,0,3.24,1.33,4.22,2.51s1.92,2.32,4,2.32,2.67-.94,3.56-2.12,2-2.71,4.62-2.71c2.14,0,3.24,1.33,4.22,2.51s1.92,2.32,4,2.32a1,1,0,1,1,0,1.93Z"/></svg>