<svg id="Capa_1" data-name="Capa 1" xmlns="http://www.w3.org/2000/svg" viewBox="0 0 100 100"><defs><style>.cls-1{fill:#f5c459;}</style></defs><title>Solar</title><g id="Capa_2" data-name="Capa 2"><path class="cls-1" d="M71.8,37.41a10.35,10.35,0,0,1-6.44-2.67,10.35,10.35,0,0,1-2.71-6.41,12.16,12.16,0,0,1-4.75,1.1c-3.62,0-6.18-2.16-8.08-4.62-1.89,2.48-4.43,4.67-8,4.68A12.19,12.19,0,0,1,37,28.41a10.36,10.36,0,0,1-2.67,6.43,10.33,10.33,0,0,1-6.42,2.72c2.21,5.25,1.12,9.19-3.54,12.84C29,54,30.17,58,28,63.21a10.33,10.33,0,0,1,6.44,2.68,10.31,10.31,0,0,1,2.71,6.41,12.18,12.18,0,0,1,4.75-1.1c3.62,0,6.18,2.16,8.09,4.62,1.89-2.48,4.43-4.67,8-4.68a12.16,12.16,0,0,1,4.76,1.06,9.21,9.21,0,0,1,9.09-9.15c-2.21-5.25-1.12-9.19,3.54-12.84C70.75,46.61,69.63,42.67,71.8,37.41ZM49.9,69.78A19.47,19.47,0,1,1,69.36,50.3h0A19.47,19.47,0,0,1,49.9,69.78Z"/><path class="cls-1" d="M49.9,9.83A40.48,40.48,0,1,0,90.29,50.4v-.09A40.44,40.44,0,0,0,49.9,9.83Zm24.78,55c-7.56,0-10.31,2.74-10.3,10.3C57.81,71.39,54,72.49,49.9,79c-4.08-6.51-7.9-7.61-14.49-3.9,0-7.56-2.74-10.31-10.3-10.3,3.71-6.58,2.61-10.41-3.92-14.49,6.53-4.09,7.63-7.91,3.92-14.49,7.56,0,10.31-2.74,10.3-10.3C42,29.23,45.82,28.13,49.9,21.59c4.08,6.53,7.91,7.64,14.49,3.93,0,7.56,2.74,10.31,10.3,10.3C71,42.4,72.08,46.23,78.61,50.31,72.08,54.39,71,58.22,74.68,64.8Z"/><circle class="cls-1" cx="49.9" cy="50.31" r="16.93"/><path class="cls-1" d="M89.91,25.35A47.17,47.17,0,1,0,95.83,61,47.17,47.17,0,0,0,89.91,25.35Zm-40,67.57A42.61,42.61,0,1,1,92.42,50.21v.1A42.56,42.56,0,0,1,49.91,92.92h0Z"/></g></svg>